<?xml version="1.0" standalone="no"?>
<!DOCTYPE svg PUBLIC "-//W3C//DTD SVG 20010904//EN"
 "http://www.w3.org/TR/2001/REC-SVG-20010904/DTD/svg10.dtd">
<svg version="1.0" xmlns="http://www.w3.org/2000/svg"
 width="300.000000pt" height="300.000000pt" viewBox="0 0 300.000000 300.000000"
 preserveAspectRatio="xMidYMid meet">
<metadata>
Created by potrace 1.11, written by Peter Selinger 2001-2013
</metadata>
<g transform="translate(0.000000,300.000000) scale(0.100000,-0.100000)"
fill="#000000" stroke="none">
<path d="M610 2824 c-213 -56 -380 -224 -435 -439 -23 -89 -23 -1681 0 -1770
55 -217 223 -385 440 -440 89 -23 1681 -23 1770 0 217 55 385 223 440 440 23
89 23 1681 0 1770 -55 217 -223 385 -440 440 -86 22 -1691 21 -1775 -1z m1730
-444 c0 -6 -109 -203 -241 -438 -133 -235 -275 -487 -316 -559 -41 -73 -78
-133 -82 -133 -13 0 -163 281 -157 295 3 8 73 129 156 269 82 140 150 260 150
266 0 7 -216 10 -681 10 -543 0 -680 3 -677 13 2 7 37 74 78 149 l75 138 848
0 c576 0 847 -3 847 -10z m126 -167 l83 -138 -32 -57 c-244 -434 -814 -1427
-818 -1428 -4 0 -131 217 -284 483 -153 265 -298 516 -322 557 -23 41 -43 78
-43 83 0 4 75 6 167 5 l167 -3 151 -264 c84 -146 156 -266 161 -268 9 -3 84
127 533 919 80 141 147 255 150 253 2 -3 41 -66 87 -142z m-689 -170 c-2 -5
-39 -70 -82 -145 l-77 -138 -314 0 c-172 0 -315 -4 -318 -8 -2 -4 148 -273
334 -597 187 -325 340 -593 340 -597 0 -14 -326 -9 -337 5 -6 6 -187 325 -403
707 -216 382 -404 714 -417 738 l-25 42 652 0 c358 0 649 -3 647 -7z"/>
</g>
</svg>
